<svg width="89" height="20" viewBox="0 0 89 20" fill="none" xmlns="http://www.w3.org/2000/svg">
<path d="M7.72704 8.5488C8.45579 8.70411 9.04117 9.06848 9.4832 9.64192C9.92523 10.2034 10.1462 10.8485 10.1462 11.5773C10.1462 12.6286 9.77589 13.4649 9.0352 14.0861C8.30645 14.6954 7.28501 15 5.97088 15H0.11104V2.42016H5.77376C7.05205 2.42016 8.0496 2.71285 8.7664 3.29824C9.49515 3.88363 9.85952 4.67808 9.85952 5.6816C9.85952 6.42229 9.6624 7.03755 9.26816 7.52736C8.88587 8.01717 8.37216 8.35765 7.72704 8.5488ZM3.17536 7.50944H5.1824C5.68416 7.50944 6.06645 7.40192 6.32928 7.18688C6.60405 6.95989 6.74144 6.63136 6.74144 6.20128C6.74144 5.7712 6.60405 5.44267 6.32928 5.21568C6.06645 4.98869 5.68416 4.8752 5.1824 4.8752H3.17536V7.50944ZM5.43328 12.527C5.94699 12.527 6.34123 12.4135 6.616 12.1866C6.90272 11.9476 7.04608 11.6071 7.04608 11.1651C7.04608 10.7231 6.89675 10.3766 6.59808 10.1258C6.31136 9.87488 5.91115 9.74944 5.39744 9.74944H3.17536V12.527H5.43328ZM13.4647 3.96128C12.9271 3.96128 12.485 3.80597 12.1386 3.49536C11.8041 3.1728 11.6368 2.77856 11.6368 2.31264C11.6368 1.83477 11.8041 1.44053 12.1386 1.12992C12.485 0.807359 12.9271 0.646079 13.4647 0.646079C13.9903 0.646079 14.4204 0.807359 14.7549 1.12992C15.1014 1.44053 15.2746 1.83477 15.2746 2.31264C15.2746 2.77856 15.1014 3.1728 14.7549 3.49536C14.4204 3.80597 13.9903 3.96128 13.4647 3.96128ZM14.9879 5.00064V15H11.9235V5.00064H14.9879ZM20.2729 6.41632C20.5596 5.9504 20.9717 5.57408 21.5093 5.28736C22.0469 5.00064 22.6622 4.85728 23.3551 4.85728C24.1794 4.85728 24.9261 5.06635 25.5951 5.48448C26.2641 5.90261 26.7898 6.49995 27.1721 7.27648C27.5663 8.05301 27.7634 8.95499 27.7634 9.9824C27.7634 11.0098 27.5663 11.9178 27.1721 12.7062C26.7898 13.4828 26.2641 14.0861 25.5951 14.5162C24.9261 14.9343 24.1794 15.1434 23.3551 15.1434C22.6502 15.1434 22.035 15.006 21.5093 14.7312C20.9837 14.4445 20.5715 14.0682 20.2729 13.6022V15H17.2085V1.7392H20.2729V6.41632ZM24.6453 9.9824C24.6453 9.21781 24.4303 8.62048 24.0002 8.1904C23.5821 7.74837 23.0624 7.52736 22.4412 7.52736C21.8319 7.52736 21.3122 7.74837 20.8821 8.1904C20.464 8.63243 20.2549 9.23573 20.2549 10.0003C20.2549 10.7649 20.464 11.3682 20.8821 11.8102C21.3122 12.2523 21.8319 12.4733 22.4412 12.4733C23.0505 12.4733 23.5701 12.2523 24.0002 11.8102C24.4303 11.3563 24.6453 10.747 24.6453 9.9824ZM32.4354 1.7392V15H29.371V1.7392H32.4354ZM36.1972 3.96128C35.6596 3.96128 35.2175 3.80597 34.8711 3.49536C34.5366 3.1728 34.3693 2.77856 34.3693 2.31264C34.3693 1.83477 34.5366 1.44053 34.8711 1.12992C35.2175 0.807359 35.6596 0.646079 36.1972 0.646079C36.7228 0.646079 37.1529 0.807359 37.4874 1.12992C37.8339 1.44053 38.0071 1.83477 38.0071 2.31264C38.0071 2.77856 37.8339 3.1728 37.4874 3.49536C37.1529 3.80597 36.7228 3.96128 36.1972 3.96128ZM37.7204 5.00064V15H34.656V5.00064H37.7204ZM39.3318 9.9824C39.3318 8.95499 39.5229 8.05301 39.9052 7.27648C40.2994 6.49995 40.8311 5.90261 41.5001 5.48448C42.1691 5.06635 42.9158 4.85728 43.7401 4.85728C44.4449 4.85728 45.0602 5.00064 45.5858 5.28736C46.1234 5.57408 46.5356 5.9504 46.8223 6.41632V5.00064H49.8866V15H46.8223V13.5843C46.5237 14.0502 46.1055 14.4266 45.5679 14.7133C45.0423 15 44.427 15.1434 43.7222 15.1434C42.9098 15.1434 42.1691 14.9343 41.5001 14.5162C40.8311 14.0861 40.2994 13.4828 39.9052 12.7062C39.5229 11.9178 39.3318 11.0098 39.3318 9.9824ZM46.8223 10.0003C46.8223 9.23573 46.6073 8.63243 46.1772 8.1904C45.7591 7.74837 45.2454 7.52736 44.6361 7.52736C44.0268 7.52736 43.5071 7.74837 43.077 8.1904C42.6589 8.62048 42.4498 9.21781 42.4498 9.9824C42.4498 10.747 42.6589 11.3563 43.077 11.8102C43.5071 12.2523 44.0268 12.4733 44.6361 12.4733C45.2454 12.4733 45.7591 12.2523 46.1772 11.8102C46.6073 11.3682 46.8223 10.7649 46.8223 10.0003ZM59.9346 12.7779H55.2395L54.4869 15H51.2792L55.8309 2.42016H59.3791L63.9307 15H60.6872L59.9346 12.7779ZM59.1461 10.4125L57.5871 5.80704L56.0459 10.4125H59.1461ZM68.3804 6.41632C68.679 5.9504 69.0912 5.57408 69.6168 5.28736C70.1425 5.00064 70.7577 4.85728 71.4626 4.85728C72.2869 4.85728 73.0336 5.06635 73.7026 5.48448C74.3716 5.90261 74.8973 6.49995 75.2796 7.27648C75.6738 8.05301 75.8709 8.95499 75.8709 9.9824C75.8709 11.0098 75.6738 11.9178 75.2796 12.7062C74.8973 13.4828 74.3716 14.0861 73.7026 14.5162C73.0336 14.9343 72.2869 15.1434 71.4626 15.1434C70.7697 15.1434 70.1544 15 69.6168 14.7133C69.0912 14.4266 68.679 14.0562 68.3804 13.6022V19.7667H65.316V5.00064H68.3804V6.41632ZM72.7528 9.9824C72.7528 9.21781 72.5378 8.62048 72.1077 8.1904C71.6896 7.74837 71.1699 7.52736 70.5487 7.52736C69.9394 7.52736 69.4197 7.74837 68.9896 8.1904C68.5715 8.63243 68.3624 9.23573 68.3624 10.0003C68.3624 10.7649 68.5715 11.3682 68.9896 11.8102C69.4197 12.2523 69.9394 12.4733 70.5487 12.4733C71.158 12.4733 71.6776 12.2523 72.1077 11.8102C72.5378 11.3563 72.7528 10.747 72.7528 9.9824ZM80.5429 6.41632C80.8415 5.9504 81.2537 5.57408 81.7793 5.28736C82.305 5.00064 82.9202 4.85728 83.6251 4.85728C84.4494 4.85728 85.1961 5.06635 85.8651 5.48448C86.5341 5.90261 87.0598 6.49995 87.4421 7.27648C87.8363 8.05301 88.0334 8.95499 88.0334 9.9824C88.0334 11.0098 87.8363 11.9178 87.4421 12.7062C87.0598 13.4828 86.5341 14.0861 85.8651 14.5162C85.1961 14.9343 84.4494 15.1434 83.6251 15.1434C82.9322 15.1434 82.3169 15 81.7793 14.7133C81.2537 14.4266 80.8415 14.0562 80.5429 13.6022V19.7667H77.4785V5.00064H80.5429V6.41632ZM84.9153 9.9824C84.9153 9.21781 84.7003 8.62048 84.2702 8.1904C83.8521 7.74837 83.3324 7.52736 82.7112 7.52736C82.1019 7.52736 81.5822 7.74837 81.1521 8.1904C80.734 8.63243 80.5249 9.23573 80.5249 10.0003C80.5249 10.7649 80.734 11.3682 81.1521 11.8102C81.5822 12.2523 82.1019 12.4733 82.7112 12.4733C83.3205 12.4733 83.8401 12.2523 84.2702 11.8102C84.7003 11.3563 84.9153 10.747 84.9153 9.9824Z" fill="white"/>
</svg>
