<svg width="337" height="267" viewBox="0 0 337 267" fill="none" xmlns="http://www.w3.org/2000/svg">
<path d="M168.5 266.256C261.56 266.256 337 221.499 337 166.288C337 111.078 261.56 66.3204 168.5 66.3204C75.44 66.3204 0 111.078 0 166.288C0 221.499 75.44 266.256 168.5 266.256Z" fill="#F5F5F5"/>
<path d="M215.946 223.35C253.137 223.35 283.287 205.945 283.287 184.476C283.287 163.007 253.137 145.602 215.946 145.602C178.756 145.602 148.606 163.007 148.606 184.476C148.606 205.945 178.756 223.35 215.946 223.35Z" fill="#E0E0E0"/>
<path d="M115.358 204.698L98.3405 194.876L84.4642 202.885L86.7769 196.211L72.9078 198.88L89.0897 189.515L37.3961 159.693C37.2172 159.633 37.0617 159.518 36.9514 159.365C36.8412 159.212 36.7819 159.028 36.7819 158.84C36.7819 158.651 36.8412 158.467 36.9514 158.314C37.0617 158.161 37.2172 158.047 37.3961 157.987L159.456 87.7773C159.915 87.5451 160.423 87.4242 160.937 87.4242C161.452 87.4242 161.959 87.5451 162.418 87.7773L240.216 132.625C240.395 132.685 240.55 132.8 240.66 132.953C240.771 133.106 240.83 133.29 240.83 133.478C240.83 133.667 240.771 133.851 240.66 134.004C240.55 134.157 240.395 134.272 240.216 134.331L118.313 204.698C117.855 204.93 117.349 205.051 116.835 205.051C116.322 205.051 115.816 204.93 115.358 204.698Z" fill="#E0E0E0"/>
<path d="M50.9012 162.255L52.7071 161.213L51.4009 160.628C51.4009 160.628 50.3444 160.899 50.3444 160.963C50.3516 161.203 50.3754 161.441 50.4158 161.677L50.9012 162.255Z" fill="#191720"/>
<path opacity="0.5" d="M50.9012 162.255L52.7071 161.213L51.4009 160.628C51.4009 160.628 50.3444 160.899 50.3444 160.963C50.3516 161.203 50.3754 161.441 50.4158 161.677L50.9012 162.255Z" fill="black"/>
<path d="M119.705 196.917C118.886 197.333 117.981 197.549 117.063 197.549C116.146 197.549 115.241 197.333 114.422 196.917L55.1126 162.655L143.888 111.397L145.965 110.198L205.268 144.46C206.696 145.303 206.696 146.673 205.268 147.508L119.705 196.917Z" fill="#191720"/>
<path d="M97.4553 132.233L76.755 144.139L63.3641 136.409L47.789 145.41V156.631C47.789 157.994 49.3165 159.928 49.8733 159.614C50.8993 159.863 51.8968 160.217 52.8498 160.671C54.3984 161.556 55.8361 162.622 57.1326 163.847L104.65 136.416L97.4553 132.233Z" fill="#191720"/>
<path opacity="0.15" d="M97.4553 132.233L76.755 144.139L63.3641 136.409L47.789 145.41V156.631C47.789 157.994 49.3165 159.928 49.8733 159.614C50.8993 159.863 51.8968 160.217 52.8498 160.671C54.3984 161.556 55.8361 162.622 57.1326 163.847L104.65 136.416L97.4553 132.233Z" fill="black"/>
<path opacity="0.4" d="M47.789 156.631C47.789 157.908 49.1238 159.686 49.7519 159.643H49.809H49.8733C49.9161 159.643 51.7577 158.472 51.9576 158.444L53.7492 152.526C53.7492 152.526 53.6421 145.609 53.7492 145.609C53.4055 144.613 53.0076 143.636 52.5572 142.683L47.789 145.438V156.631Z" fill="black"/>
<path d="M114.415 196.918L110.846 194.84L57.147 163.819C57.1083 163.119 56.8595 162.447 56.4332 161.891C55.7952 161.054 54.9969 160.353 54.0847 159.828C53.3197 159.356 52.4484 159.084 51.5508 159.036C50.9486 159.03 50.3612 159.223 49.8805 159.586C49.2009 158.217 48.8699 156.702 48.9168 155.174H46.8468C46.8468 157.98 47.7747 160.792 48.9097 161.442L49.9376 162.041C50.5157 162.377 50.9797 162.398 50.9797 162.084V161.534C50.9797 160.928 51.9005 160.956 53.0497 161.62C54.199 162.284 55.1126 163.305 55.1126 163.918V164.461C55.1126 164.782 55.9049 165.482 56.8757 166.038L108.798 196.018L114.415 199.259C115.228 199.681 116.133 199.895 117.049 199.88V197.531C116.133 197.555 115.226 197.344 114.415 196.918Z" fill="#191720"/>
<path opacity="0.3" d="M114.415 196.918L110.846 194.84L57.147 163.819C57.1083 163.119 56.8595 162.447 56.4332 161.891C55.7952 161.054 54.9969 160.353 54.0847 159.828C53.3197 159.356 52.4484 159.084 51.5508 159.036C50.9486 159.03 50.3612 159.223 49.8805 159.586C49.2009 158.217 48.8699 156.702 48.9168 155.174H46.8468C46.8468 157.98 47.7747 160.792 48.9097 161.442L49.9376 162.041C50.5157 162.377 50.9797 162.398 50.9797 162.084V161.534C50.9797 160.928 51.9005 160.956 53.0497 161.62C54.199 162.284 55.1126 163.305 55.1126 163.918V164.461C55.1126 164.782 55.9049 165.482 56.8757 166.038L108.798 196.018L114.415 199.259C115.228 199.681 116.133 199.895 117.049 199.88V197.531C116.133 197.555 115.226 197.344 114.415 196.918Z" fill="black"/>
<path d="M206.353 145.973V148.358C206.329 148.679 206.219 148.987 206.036 149.252C205.853 149.517 205.603 149.728 205.311 149.864H205.268L125.294 196.025L119.683 199.266C118.87 199.688 117.965 199.901 117.049 199.887V197.539C117.969 197.56 118.879 197.344 119.69 196.91L123.259 194.847L205.239 147.508C205.549 147.381 205.818 147.171 206.015 146.899C206.211 146.628 206.329 146.308 206.353 145.973Z" fill="#191720"/>
<path opacity="0.2" d="M206.353 145.973V148.358C206.329 148.679 206.219 148.987 206.036 149.252C205.853 149.517 205.603 149.728 205.311 149.864H205.268L125.294 196.025L119.683 199.266C118.87 199.688 117.965 199.901 117.049 199.887V197.539C117.969 197.56 118.879 197.344 119.69 196.91L123.259 194.847L205.239 147.508C205.549 147.381 205.818 147.171 206.015 146.899C206.211 146.628 206.329 146.308 206.353 145.973Z" fill="black"/>
<path d="M117.063 181.721V195.426C116.449 195.442 115.841 195.296 115.3 195.005L108.798 191.257L59.2455 162.641V148.329L117.063 181.721Z" fill="#EBEBEB"/>
<path opacity="0.15" d="M86.8197 172.22L100.696 180.236C100.696 180.236 99.2684 178.737 93.7578 175.596C88.4186 172.548 86.8197 172.22 86.8197 172.22Z" fill="black"/>
<path d="M203.812 133.361V143.918C203.778 144.528 203.601 145.121 203.296 145.651C202.991 146.18 202.567 146.63 202.056 146.966L125.294 191.257L118.798 195.005C118.259 195.296 117.654 195.441 117.042 195.426V183.17L203.812 133.361Z" fill="#F5F5F5"/>
<path d="M56.3403 146.687V158.822C56.2793 158.779 56.2148 158.74 56.1476 158.708C55.3877 158.229 54.5176 157.954 53.6207 157.908C53.0205 157.901 52.4351 158.094 51.9575 158.458V144.182L56.3403 146.687Z" fill="#3B3A42"/>
<path d="M59.2384 162.648C59.2024 161.948 58.9533 161.275 58.5246 160.721C58.3099 160.423 58.0712 160.144 57.8108 159.885L57.5609 159.65L57.2397 159.372L56.9685 159.172C56.7818 159.029 56.5863 158.897 56.3832 158.779V146.687L59.2384 148.365V162.648Z" fill="#E0E0E0"/>
<path d="M143.888 94.6868L55.1126 145.973V147.158C55.1126 147.822 54.1918 148.065 53.0497 147.408C51.9076 146.752 50.9797 145.924 50.9797 144.781L50.8655 143.654L141.318 91.439L141.682 91.2249C141.779 91.3925 141.833 91.5813 141.84 91.7745V92.3241C141.84 92.9594 142.753 94.0159 143.888 94.6868Z" fill="#191720"/>
<path opacity="0.1" d="M143.888 94.6868L55.1126 145.973V147.158C55.1126 147.822 54.1918 148.065 53.0497 147.408C51.9076 146.752 50.9797 145.924 50.9797 144.781L50.8655 143.654L141.318 91.439L141.682 91.2249C141.779 91.3925 141.833 91.5813 141.84 91.7745V92.3241C141.84 92.9594 142.753 94.0159 143.888 94.6868Z" fill="black"/>
<path d="M114.422 180.193L56.426 146.687C55.7122 146.302 54.9984 145.973 54.7343 146.138L55.1126 145.931L143.888 94.6654L144.93 94.0729C145.501 93.7374 146.75 93.923 147.728 94.4869L205.239 127.729C206.667 128.578 206.667 129.949 205.239 130.784L119.704 180.193C118.886 180.608 117.981 180.825 117.063 180.825C116.146 180.825 115.241 180.608 114.422 180.193Z" fill="#191720"/>
<path d="M141.711 91.2035L141.347 91.4176L50.8654 143.632C50.8198 143.538 50.754 143.455 50.6727 143.39L50.3658 143.218L49.7162 142.84L48.9168 142.404C48.7618 142.301 48.5758 142.253 48.39 142.27C48.2041 142.287 48.0297 142.367 47.896 142.497C47.8539 142.52 47.8173 142.552 47.789 142.59C47.6817 142.703 47.5905 142.831 47.5177 142.968C47.4209 143.128 47.3419 143.298 47.2822 143.475C47.2108 143.661 47.1537 143.861 47.0966 144.068C47.0395 144.275 47.0109 144.51 46.9681 144.781C46.9405 144.92 46.9238 145.061 46.9181 145.203C46.9181 145.31 46.9181 145.417 46.9181 145.538C46.9181 145.788 46.8824 146.052 46.8824 146.33V143.789C46.8824 142.362 48.0745 140.563 49.5306 139.721L135.101 90.3112C136.564 89.4689 138.67 89.3262 139.812 89.9757L140.89 90.6039C140.961 90.6538 141.147 90.7538 141.347 90.868C141.499 90.9416 141.625 91.0583 141.711 91.2035Z" fill="#191720"/>
<path d="M114.437 180.236L110.868 178.159L69.617 154.318L56.426 146.687C55.4909 146.138 54.7271 145.973 54.6771 146.223C54.6738 146.235 54.6738 146.247 54.6771 146.259V146.859C54.6771 147.515 53.7492 147.515 52.6071 146.859C51.465 146.202 51.0011 145.431 50.9868 144.781V144.132C50.9973 143.989 50.9752 143.845 50.922 143.711C50.8688 143.578 50.786 143.458 50.6799 143.361L50.3729 143.19L49.7234 142.811L48.9168 142.404C48.7618 142.301 48.5758 142.253 48.39 142.27C48.2041 142.287 48.0297 142.367 47.896 142.497C47.8539 142.52 47.8173 142.552 47.789 142.59C47.7177 142.662 47.6576 142.743 47.6105 142.833C47.5732 142.873 47.5419 142.919 47.5177 142.968C47.4209 143.128 47.3419 143.298 47.2822 143.475C47.2108 143.661 47.1537 143.861 47.0966 144.068C47.0395 144.275 47.0109 144.51 46.9681 144.781C46.9405 144.92 46.9238 145.061 46.9181 145.203C46.9181 145.31 46.9181 145.417 46.9181 145.538C46.9181 145.788 46.8824 146.052 46.8824 146.33V155.239H48.9168V146.266C48.9168 146.052 48.9168 145.838 48.9168 145.638L48.9667 145.124C48.9613 145.108 48.9613 145.09 48.9667 145.074C49.1452 146.694 50.6941 148.136 52.0361 148.9C52.7811 149.367 53.6346 149.633 54.513 149.671C55.1814 149.678 55.8292 149.439 56.3332 149L56.5188 149.1L56.8757 149.314L108.798 179.294L114.415 182.534C114.415 182.534 114.415 182.534 114.451 182.534C115.255 182.944 116.147 183.15 117.049 183.134V180.786C116.146 180.823 115.248 180.634 114.437 180.236Z" fill="#191720"/>
<path opacity="0.3" d="M114.437 180.236L110.868 178.159L69.617 154.318L56.426 146.687C55.4909 146.138 54.7271 145.973 54.6771 146.223C54.6738 146.235 54.6738 146.247 54.6771 146.259V146.859C54.6771 147.515 53.7492 147.515 52.6071 146.859C51.465 146.202 51.0011 145.431 50.9868 144.781V144.132C50.9973 143.989 50.9752 143.845 50.922 143.711C50.8688 143.578 50.786 143.458 50.6799 143.361L50.3729 143.19L49.7234 142.811L48.9168 142.404C48.7618 142.301 48.5758 142.253 48.39 142.27C48.2041 142.287 48.0297 142.367 47.896 142.497C47.8539 142.52 47.8173 142.552 47.789 142.59C47.7177 142.662 47.6576 142.743 47.6105 142.833C47.5732 142.873 47.5419 142.919 47.5177 142.968C47.4209 143.128 47.3419 143.298 47.2822 143.475C47.2108 143.661 47.1537 143.861 47.0966 144.068C47.0395 144.275 47.0109 144.51 46.9681 144.781C46.9405 144.92 46.9238 145.061 46.9181 145.203C46.9181 145.31 46.9181 145.417 46.9181 145.538C46.9181 145.788 46.8824 146.052 46.8824 146.33V155.239H48.9168V146.266C48.9168 146.052 48.9168 145.838 48.9168 145.638L48.9667 145.124C48.9613 145.108 48.9613 145.09 48.9667 145.074C49.1452 146.694 50.6941 148.136 52.0361 148.9C52.7811 149.367 53.6346 149.633 54.513 149.671C55.1814 149.678 55.8292 149.439 56.3332 149L56.5188 149.1L56.8757 149.314L108.798 179.294L114.415 182.534C114.415 182.534 114.415 182.534 114.451 182.534C115.255 182.944 116.147 183.15 117.049 183.134V180.786C116.146 180.823 115.248 180.634 114.437 180.236Z" fill="black"/>
<path opacity="0.1" d="M147.728 94.5084C146.75 93.9445 145.501 93.7589 144.93 94.0944L143.895 94.6868C142.753 94.0158 141.839 92.9594 141.839 92.3027V91.7245C141.833 91.5313 141.779 91.3426 141.682 91.1749C141.613 91.0251 141.501 90.8987 141.361 90.8109C141.161 90.6967 140.976 90.5967 140.904 90.5468L139.827 89.9186C138.684 89.2691 136.579 89.4118 135.115 90.2541L49.495 139.656L49.4022 139.721L109.861 174.625C110.406 174.902 111.009 175.046 111.621 175.046C112.232 175.046 112.835 174.902 113.38 174.625L199.529 124.41L147.728 94.5084Z" fill="black"/>
<path d="M206.353 129.228V131.619C206.327 131.939 206.217 132.248 206.034 132.512C205.851 132.776 205.602 132.988 205.311 133.125H205.268L125.294 179.301L119.683 182.542C118.869 182.961 117.964 183.172 117.049 183.155V180.807C117.969 180.829 118.879 180.613 119.69 180.179L123.259 178.116L205.239 130.784C205.553 130.656 205.824 130.442 206.021 130.167C206.218 129.891 206.333 129.566 206.353 129.228Z" fill="#191720"/>
<path opacity="0.2" d="M206.353 129.228V131.619C206.327 131.939 206.217 132.248 206.034 132.512C205.851 132.776 205.602 132.988 205.311 133.125H205.268L125.294 179.301L119.683 182.542C118.869 182.961 117.964 183.172 117.049 183.155V180.807C117.969 180.829 118.879 180.613 119.69 180.179L123.259 178.116L205.239 130.784C205.553 130.656 205.824 130.442 206.021 130.167C206.218 129.891 206.333 129.566 206.353 129.228Z" fill="black"/>
<path d="M105.022 169.586L107.313 168.266C106.696 168.053 106.034 168.006 105.393 168.13C104.786 168.415 105.022 169.586 105.022 169.586Z" fill="black"/>
<path d="M103.451 168.144C103.71 167.861 104.025 167.635 104.376 167.481C104.727 167.326 105.106 167.247 105.489 167.247C105.873 167.247 106.252 167.326 106.603 167.481C106.953 167.635 107.268 167.861 107.527 168.144C109.754 170.186 109.868 172.213 110.789 172.177C111.71 172.141 111.731 155.86 111.731 155.86L102.959 164.018L103.451 168.144Z" fill="black"/>
<path d="M195.382 108.913L195.525 108.834L194.097 108.021L133.559 73.0444L45.3478 130.156C43.9202 130.998 43.6275 132.211 44.7696 132.868L46.8325 134.053L103.423 166.738L103.822 166.452L195.382 108.913Z" fill="#565560"/>
<path d="M111.018 148.151L106.635 147.244V164.796C109.276 165.917 110.96 166.973 111.239 169.186L111.018 148.151Z" fill="#191720"/>
<path d="M104.665 165.025L48.6099 132.661C48.0969 132.326 47.67 131.875 47.3637 131.344C47.0574 130.813 46.8803 130.218 46.8468 129.606V112.311L103.451 145.26C103.451 145.26 104.122 147.708 106.128 148.479C108.134 149.25 106.606 150.028 106.606 150.028V164.782C104.872 164.589 104.665 165.025 104.665 165.025Z" fill="#EBEBEB"/>
<path d="M109.84 147.551C109.254 147.215 108.798 147.194 108.798 147.508V148.058C108.798 148.665 107.877 148.636 106.728 147.972C105.578 147.308 104.65 146.288 104.65 145.681V145.131C104.65 144.81 103.872 144.11 102.902 143.554L194.111 91.2962L195.539 92.11C195.73 92.3196 195.85 92.5845 195.881 92.8666V93.4162C195.881 94.0301 196.809 95.0508 197.951 95.7147C199.093 96.3785 200.021 96.4285 200.021 95.7932V95.2507C200.021 94.9295 200.478 94.9509 201.056 95.2864L109.84 147.551Z" fill="#3B3A42"/>
<path d="M195.382 92.1956L195.525 92.11L194.097 91.2962L133.559 56.32L45.3478 107.285C43.9202 108.128 43.6275 109.341 44.7696 109.998L46.8325 111.19L103.451 145.26L195.382 92.1956Z" fill="#565560"/>
<path d="M200.029 94.7154L108.876 147.33L112.067 149.828L202.905 97.3778C202.682 96.7036 202.259 96.1135 201.692 95.6861L200.029 94.7154Z" fill="#565560"/>
<path d="M202.563 120.94C202.622 120.909 202.677 120.871 202.727 120.826C202.769 120.804 202.806 120.772 202.834 120.733C202.905 120.662 202.965 120.58 203.012 120.491C203.05 120.45 203.081 120.405 203.105 120.355C203.202 120.195 203.281 120.025 203.341 119.848C203.412 119.663 203.469 119.463 203.526 119.256C203.583 119.049 203.612 118.813 203.655 118.542C203.682 118.403 203.699 118.262 203.705 118.121C203.705 118.014 203.705 117.907 203.705 117.785C203.705 117.536 203.74 117.271 203.74 116.993V101.968C203.751 100.398 203.462 98.8401 202.891 97.3778L112.081 149.828L111.696 173.383L202.534 120.99L202.563 120.94Z" fill="#565560"/>
<path opacity="0.1" d="M112.081 149.828C112.081 149.828 183.625 116.344 190.135 113.274C194.418 111.247 196.56 115.501 195.525 119.905C194.632 123.753 190.842 127.714 190.842 127.714L202.534 120.99C202.593 120.959 202.648 120.921 202.698 120.876C202.74 120.854 202.777 120.822 202.805 120.783C202.877 120.712 202.937 120.63 202.984 120.541C203.021 120.5 203.052 120.455 203.077 120.405C203.173 120.245 203.252 120.075 203.312 119.898C203.383 119.713 203.441 119.513 203.498 119.306C203.555 119.099 203.583 118.863 203.626 118.592C203.654 118.453 203.67 118.312 203.676 118.171C203.676 118.064 203.676 117.957 203.676 117.835C203.676 117.586 203.712 117.321 203.712 117.043V101.968C203.722 100.398 203.434 98.8401 202.862 97.3778L112.081 149.828Z" fill="black"/>
<path d="M112.923 154.418H110.889C110.934 152.879 110.596 151.353 109.904 149.978C109.423 150.341 108.836 150.534 108.234 150.528C107.338 150.481 106.469 150.208 105.707 149.735C104.792 149.214 103.993 148.512 103.358 147.672C103.315 147.613 103.274 147.551 103.237 147.487C102.872 146.976 102.659 146.372 102.623 145.745L48.9168 114.752L47.0966 113.688L44.7696 112.346C44.5674 112.254 44.3941 112.108 44.2684 111.924C44.1427 111.74 44.0692 111.526 44.0558 111.304V108.92C44.0659 109.147 44.1377 109.368 44.2634 109.558C44.3891 109.748 44.5641 109.9 44.7696 109.998L50.9368 113.567L102.859 143.547C103.822 144.103 104.615 144.803 104.615 145.117V145.667C104.662 146.034 104.83 146.376 105.093 146.637C105.552 147.181 106.109 147.633 106.735 147.972C107.884 148.636 108.812 148.686 108.812 148.058V147.508C108.812 147.194 109.269 147.208 109.847 147.544L110.875 148.143C111.995 148.829 112.923 151.612 112.923 154.418Z" fill="#3B3A42"/>
<path d="M110.889 154.418V169.479C110.889 169.693 110.889 169.9 110.889 170.107L110.839 170.614C110.843 170.63 110.843 170.647 110.839 170.664C110.654 169.051 109.112 167.609 107.77 166.845C107.023 166.376 106.167 166.108 105.286 166.067C104.618 166.061 103.97 166.3 103.466 166.738L103.28 166.638L102.93 166.424L51.0083 136.444L48.0246 134.724C47.7533 134.567 47.4535 134.403 47.1752 134.231L44.6626 132.804C44.4951 132.7 44.3559 132.557 44.2575 132.386C44.1591 132.215 44.1045 132.023 44.0987 131.826V134.203C44.1066 134.387 44.1579 134.566 44.2485 134.726C44.3391 134.886 44.4663 135.022 44.6197 135.124C44.9124 135.302 45.2265 135.473 45.5477 135.666L46.1259 136.002L47.1181 136.58C47.3465 136.715 47.5463 136.837 47.7391 136.937L48.1745 137.194L48.9382 137.636L90.1889 161.442L103.351 169.044C104.286 169.593 105.05 169.757 105.1 169.5C105.1 169.458 105.1 169.415 105.1 169.4V168.872C105.1 168.208 106.021 168.208 107.163 168.872C108.305 169.536 108.769 170.3 108.791 170.942V171.592C108.779 171.736 108.8 171.88 108.852 172.015C108.904 172.15 108.985 172.271 109.09 172.37L109.397 172.541C109.583 172.641 109.804 172.777 110.047 172.919L110.853 173.383C111.01 173.487 111.197 173.534 111.384 173.517C111.57 173.5 111.746 173.42 111.881 173.291C111.919 173.268 111.953 173.239 111.981 173.205C112.053 173.129 112.115 173.045 112.167 172.955C112.2 172.918 112.228 172.877 112.252 172.834C112.35 172.674 112.429 172.504 112.488 172.327C112.562 172.133 112.624 171.936 112.674 171.735C112.724 171.513 112.766 171.285 112.802 171.021C112.834 170.885 112.85 170.746 112.852 170.607C112.852 170.493 112.852 170.393 112.852 170.271C112.852 170.014 112.852 169.75 112.852 169.479V154.418H110.889Z" fill="#3B3A42"/>
<path opacity="0.1" d="M202.919 97.3707L116.585 147.223L51.3223 109.57C50.3444 109.013 50.3444 108.099 51.3223 107.535L136.757 58.1759L194.104 91.2962L195.532 92.1171C195.715 92.3149 195.835 92.5638 195.874 92.8309V93.3806C195.874 93.9944 196.802 95.0223 197.937 95.679C197.996 95.7156 198.058 95.7466 198.123 95.7718L200.021 94.6725L200.928 95.1936L201.049 95.2507L201.72 95.6362C202.286 96.0804 202.704 96.6849 202.919 97.3707Z" fill="black"/>
<path d="M56.1833 109.919L58.7815 108.535L56.4117 107.964C56.1876 108.232 56.0467 108.56 56.0061 108.907C55.9655 109.255 56.0271 109.606 56.1833 109.919Z" fill="#191720"/>
<path opacity="0.5" d="M56.1833 109.919L58.7815 108.535L56.4117 107.964C56.1876 108.232 56.0467 108.56 56.0061 108.907C55.9655 109.255 56.0271 109.606 56.1833 109.919Z" fill="black"/>
<path d="M124.994 144.546C124.175 144.961 123.27 145.177 122.353 145.177C121.435 145.177 120.53 144.961 119.712 144.546L60.409 110.283L149.185 59.8533L151.262 58.6541L210.564 92.0672C211.992 92.9094 211.992 94.2799 210.564 95.1151L124.994 144.546Z" fill="#191720"/>
<path d="M102.73 80.7249L82.0301 92.6311L68.6463 84.9006L53.0854 93.8659V104.287C53.0854 105.651 54.6129 107.585 55.1626 107.271C56.1886 107.519 57.1861 107.874 58.1391 108.328C59.6883 109.212 61.1261 110.278 62.4219 111.504L109.94 84.9006L102.73 80.7249Z" fill="#191720"/>
<path opacity="0.15" d="M102.73 80.7249L82.0301 92.6311L68.6463 84.9006L53.0854 93.8659V104.287C53.0854 105.651 54.6129 107.585 55.1626 107.271C56.1886 107.519 57.1861 107.874 58.1391 108.328C59.6883 109.212 61.1261 110.278 62.4219 111.504L109.94 84.9006L102.73 80.7249Z" fill="black"/>
<path d="M61.6296 95.1437V106.429C61.5723 106.387 61.5128 106.349 61.4511 106.315C60.684 105.841 59.8101 105.569 58.91 105.522C58.325 105.463 57.7368 105.601 57.2397 105.915V92.6168L61.6296 95.1437Z" fill="#3B3A42"/>
<path d="M64.5419 110.283C64.4981 109.585 64.2498 108.915 63.8281 108.356C63.6136 108.058 63.3749 107.779 63.1143 107.521L62.8644 107.285L62.5361 107.007L62.2648 106.807C62.0765 106.667 61.8811 106.535 61.6795 106.415V95.2007L64.5776 96.8782V96.8211L64.5419 110.283Z" fill="#E0E0E0"/>
<path opacity="0.4" d="M53.0854 104.287C53.0854 105.651 54.6129 107.585 55.1626 107.271L57.2397 105.915V97.3493L55.1554 93.7803L54.0205 93.3806L53.0783 93.9231L53.0854 104.287Z" fill="black"/>
<path d="M122.353 130.206V143.054C121.741 143.071 121.136 142.929 120.597 142.64L114.087 138.885L64.5347 110.283V96.8211L122.353 130.206Z" fill="#EBEBEB"/>
<path opacity="0.15" d="M68.2822 105.444L82.1514 113.453C82.1514 113.453 80.7238 111.954 75.2203 108.82C69.874 105.772 68.2822 105.444 68.2822 105.444Z" fill="black"/>
<path d="M209.08 81.8527V91.5747C209.046 92.1855 208.869 92.7799 208.563 93.3095C208.256 93.8391 207.829 94.289 207.316 94.6226L130.611 138.878L124.116 142.633C123.574 142.922 122.966 143.065 122.353 143.047V131.697L209.08 81.8527Z" fill="#F5F5F5"/>
<path d="M149.184 43.186L60.409 94.437V95.629C60.409 96.2929 59.481 96.5355 58.3461 95.8717C57.2111 95.2079 56.2689 94.387 56.2689 93.2521L56.1619 92.1243L146.615 39.9025L146.979 39.6884C147.071 39.8572 147.123 40.0455 147.129 40.238V40.7876C147.129 41.4515 148.05 42.5079 149.184 43.186Z" fill="#191720"/>
<path opacity="0.1" d="M149.184 43.186L60.409 94.437V95.629C60.409 96.2929 59.481 96.5355 58.3461 95.8717C57.2111 95.2079 56.2689 94.387 56.2689 93.2521L56.1619 92.1243L146.615 39.9025L146.979 39.6884C147.071 39.8572 147.123 40.0455 147.129 40.238V40.7876C147.129 41.4515 148.05 42.5079 149.184 43.186Z" fill="black"/>
<path d="M119.712 128.678L61.7224 95.2007C61.0086 94.8153 60.2948 94.4869 60.0307 94.6511L60.409 94.437L149.185 43.186L150.22 42.5864C150.798 42.2581 152.047 42.4437 153.018 43.0004L210.564 76.2279C211.992 77.0702 211.992 78.4407 210.564 79.2758L124.994 128.678C124.175 129.093 123.27 129.309 122.353 129.309C121.435 129.309 120.53 129.093 119.712 128.678Z" fill="#191720"/>
<path d="M151.661 57.4621L183.725 76.0209C185.082 76.8061 185.082 78.0838 183.725 78.8761L179.407 81.3673C178.642 81.7543 177.798 81.9559 176.941 81.9559C176.084 81.9559 175.239 81.7543 174.474 81.3673L142.425 62.8227C141.061 62.0375 141.061 60.7598 142.425 59.9675L146.708 57.4763C147.473 57.0825 148.322 56.8759 149.183 56.8734C150.044 56.8709 150.893 57.0726 151.661 57.4621Z" fill="white"/>
<path d="M117.52 122.732C117.42 122.734 117.322 122.709 117.235 122.661L73.6929 97.5848C73.6053 97.5349 73.5325 97.4628 73.4819 97.3756C73.4313 97.2885 73.4046 97.1895 73.4046 97.0887C73.4046 96.988 73.4313 96.889 73.4819 96.8019C73.5325 96.7147 73.6053 96.6426 73.6929 96.5927C74.0958 96.3585 74.4303 96.0226 74.6628 95.6186C74.8952 95.2147 75.0176 94.7567 75.0176 94.2906C75.0176 93.8246 74.8952 93.3666 74.6628 92.9627C74.4303 92.5587 74.0958 92.2228 73.6929 91.9886C73.6054 91.9398 73.5326 91.8683 73.4824 91.7816C73.4321 91.6949 73.4062 91.5963 73.4073 91.4961C73.407 91.3961 73.4332 91.2977 73.4834 91.2112C73.5336 91.1246 73.6059 91.053 73.6929 91.0036L146.415 49.0178C146.502 48.9683 146.6 48.9424 146.701 48.9424C146.801 48.9424 146.899 48.9683 146.986 49.0178C148.371 49.8158 149.942 50.2358 151.54 50.2358C153.139 50.2358 154.709 49.8158 156.094 49.0178C156.181 48.9683 156.28 48.9424 156.38 48.9424C156.48 48.9424 156.578 48.9683 156.665 49.0178L200.157 74.1293C200.243 74.1803 200.314 74.2523 200.364 74.3385C200.414 74.4247 200.441 74.5222 200.443 74.6218C200.442 74.7217 200.416 74.8198 200.366 74.9062C200.316 74.9926 200.244 75.0644 200.157 75.1144C199.754 75.3485 199.42 75.6844 199.187 76.0884C198.955 76.4924 198.832 76.9503 198.832 77.4164C198.832 77.8825 198.955 78.3404 199.187 78.7444C199.42 79.1483 199.754 79.4842 200.157 79.7184C200.244 79.7683 200.316 79.8401 200.366 79.9265C200.416 80.013 200.442 80.111 200.443 80.2109C200.441 80.3105 200.414 80.408 200.364 80.4942C200.314 80.5804 200.243 80.6524 200.157 80.7034L127.471 122.654C127.384 122.703 127.285 122.729 127.185 122.729C127.085 122.729 126.987 122.703 126.9 122.654C125.516 121.857 123.949 121.439 122.353 121.439C120.757 121.439 119.189 121.857 117.806 122.654C117.719 122.704 117.621 122.731 117.52 122.732ZM74.9777 97.0352L117.527 121.526C119.013 120.735 120.67 120.321 122.353 120.321C124.036 120.321 125.693 120.735 127.178 121.526L198.815 80.1467C198.45 79.792 198.159 79.3676 197.961 78.8986C197.762 78.4296 197.66 77.9256 197.66 77.4164C197.66 76.9071 197.762 76.4031 197.961 75.9341C198.159 75.4651 198.45 75.0407 198.815 74.6861L156.344 50.167C154.855 50.9582 153.194 51.3719 151.508 51.3719C149.822 51.3719 148.161 50.9582 146.672 50.167L74.9777 91.5675C75.3431 91.9221 75.6337 92.3465 75.8321 92.8155C76.0305 93.2845 76.1327 93.7885 76.1327 94.2978C76.1327 94.807 76.0305 95.3111 75.8321 95.78C75.6337 96.249 75.3431 96.6734 74.9777 97.0281V97.0352Z" fill="white"/>
<path d="M146.979 39.6884L146.615 39.9025L56.1619 92.1243C56.1151 92.0269 56.0467 91.9415 55.962 91.8744L55.6622 91.7031L55.0127 91.3248C54.7629 91.1892 54.4916 91.025 54.2061 90.8608C54.0496 90.7577 53.8627 90.7107 53.6759 90.7275C53.4892 90.7444 53.3137 90.8241 53.1782 90.9536C53.1384 90.9767 53.1042 91.0084 53.0783 91.0464C52.9711 91.157 52.8798 91.2819 52.807 91.4176C52.7087 91.5791 52.6296 91.7516 52.5715 91.9315C52.4969 92.1224 52.4349 92.3179 52.3859 92.5169C52.3359 92.7381 52.2931 92.9666 52.2574 93.2307C52.2263 93.3665 52.2096 93.5053 52.2075 93.6447C52.2075 93.7589 52.2075 93.8588 52.2075 93.9802C52.2075 94.2371 52.2075 94.5012 52.2075 94.7725V92.2313C52.2075 90.8037 53.3995 89.0121 54.8485 88.1698L140.426 38.7533C141.854 37.911 143.995 37.7683 145.13 38.4178L146.208 39.0531H146.251C146.322 39.1031 146.508 39.203 146.708 39.3172C146.83 39.4142 146.924 39.5424 146.979 39.6884Z" fill="#191720"/>
<path d="M119.712 144.546L116.143 142.469L62.479 111.497C62.4393 110.8 62.1906 110.131 61.7652 109.577C61.1307 108.737 60.3317 108.035 59.4168 107.514C58.6384 107.03 57.7485 106.755 56.8328 106.714C56.2305 106.707 55.6428 106.9 55.1625 107.264C54.471 105.889 54.1325 104.363 54.1775 102.824H52.1432C52.1432 105.629 53.0711 108.442 54.206 109.091L55.2339 109.691C55.8121 110.026 56.2689 110.048 56.2689 109.734V109.184C56.2689 108.577 57.1969 108.606 58.3461 109.27C59.4953 109.934 60.409 110.997 60.409 111.568V112.118C60.409 112.439 61.2013 113.139 62.1649 113.695L114.087 143.675L119.712 146.923C120.525 147.344 121.43 147.558 122.346 147.544V145.195C121.426 145.21 120.519 144.986 119.712 144.546Z" fill="#191720"/>
<path opacity="0.3" d="M119.712 144.546L116.143 142.469L62.479 111.497C62.4393 110.8 62.1906 110.131 61.7652 109.577C61.1307 108.737 60.3317 108.035 59.4168 107.514C58.6384 107.03 57.7485 106.755 56.8328 106.714C56.2305 106.707 55.6428 106.9 55.1625 107.264C54.471 105.889 54.1325 104.363 54.1775 102.824H52.1432C52.1432 105.629 53.0711 108.442 54.206 109.091L55.2339 109.691C55.8121 110.026 56.2689 110.048 56.2689 109.734V109.184C56.2689 108.577 57.1969 108.606 58.3461 109.27C59.4953 109.934 60.409 110.997 60.409 111.568V112.118C60.409 112.439 61.2013 113.139 62.1649 113.695L114.087 143.675L119.712 146.923C120.525 147.344 121.43 147.558 122.346 147.544V145.195C121.426 145.21 120.519 144.986 119.712 144.546Z" fill="black"/>
<path d="M119.733 128.692L116.164 126.622L74.9134 102.824L61.7224 95.2007C60.7873 94.6511 60.0235 94.4869 59.9735 94.7439V95.3435C59.9735 96.0073 59.0527 96.0073 57.9106 95.3435C56.7686 94.6797 56.3046 93.9159 56.2832 93.2735V92.6239C56.2954 92.4793 56.274 92.3339 56.2208 92.199C56.1675 92.064 56.0839 91.9432 55.9762 91.8459L55.6765 91.6745C55.4909 91.5746 55.2696 91.439 55.0269 91.2962C54.7842 91.1535 54.5058 90.9964 54.2203 90.8323C54.0638 90.7291 53.8769 90.6821 53.6901 90.6989C53.5034 90.7158 53.3279 90.7955 53.1924 90.9251C53.1526 90.9481 53.1184 90.9798 53.0925 91.0178C53.019 91.0892 52.9565 91.171 52.9069 91.2605C52.8727 91.2994 52.8439 91.3426 52.8212 91.389C52.7229 91.5505 52.6438 91.723 52.5857 91.903C52.5111 92.0938 52.4491 92.2893 52.4001 92.4883C52.3501 92.7096 52.3073 92.938 52.2716 93.2021C52.2405 93.338 52.2238 93.4767 52.2216 93.6161C52.2216 93.7303 52.2216 93.8302 52.2216 93.9516C52.2216 94.2085 52.2216 94.4726 52.2216 94.7439V102.824H54.256V94.751C54.256 94.544 54.256 94.3299 54.256 94.1229L54.306 93.6161C54.3025 93.5996 54.3025 93.5826 54.306 93.5661C54.4915 95.1793 56.0334 96.6283 57.3753 97.385C58.109 97.8412 58.9465 98.104 59.8094 98.1487C60.4776 98.1544 61.1249 97.9158 61.6296 97.4778L61.808 97.5777L62.1649 97.7918L114.087 127.771L119.712 131.012H119.754C120.557 131.419 121.446 131.625 122.346 131.612V129.263C121.441 129.292 120.543 129.096 119.733 128.692Z" fill="#191720"/>
<path opacity="0.3" d="M119.733 128.692L116.164 126.622L74.9134 102.824L61.7224 95.2007C60.7873 94.6511 60.0235 94.4869 59.9735 94.7439V95.3435C59.9735 96.0073 59.0527 96.0073 57.9106 95.3435C56.7686 94.6797 56.3046 93.9159 56.2832 93.2735V92.6239C56.2954 92.4793 56.274 92.3339 56.2208 92.199C56.1675 92.064 56.0839 91.9432 55.9762 91.8459L55.6765 91.6745C55.4909 91.5746 55.2696 91.439 55.0269 91.2962C54.7842 91.1535 54.5058 90.9964 54.2203 90.8323C54.0638 90.7291 53.8769 90.6821 53.6901 90.6989C53.5034 90.7158 53.3279 90.7955 53.1924 90.9251C53.1526 90.9481 53.1184 90.9798 53.0925 91.0178C53.019 91.0892 52.9565 91.171 52.9069 91.2605C52.8727 91.2994 52.8439 91.3426 52.8212 91.389C52.7229 91.5505 52.6438 91.723 52.5857 91.903C52.5111 92.0938 52.4491 92.2893 52.4001 92.4883C52.3501 92.7096 52.3073 92.938 52.2716 93.2021C52.2405 93.338 52.2238 93.4767 52.2216 93.6161C52.2216 93.7303 52.2216 93.8302 52.2216 93.9516C52.2216 94.2085 52.2216 94.4726 52.2216 94.7439V102.824H54.256V94.751C54.256 94.544 54.256 94.3299 54.256 94.1229L54.306 93.6161C54.3025 93.5996 54.3025 93.5826 54.306 93.5661C54.4915 95.1793 56.0334 96.6283 57.3753 97.385C58.109 97.8412 58.9465 98.104 59.8094 98.1487C60.4776 98.1544 61.1249 97.9158 61.6296 97.4778L61.808 97.5777L62.1649 97.7918L114.087 127.771L119.712 131.012H119.754C120.557 131.419 121.446 131.625 122.346 131.612V129.263C121.441 129.292 120.543 129.096 119.733 128.692Z" fill="black"/>
<path d="M211.664 77.7198V80.1039C211.639 80.4256 211.528 80.7348 211.344 80.9995C211.159 81.2643 210.907 81.475 210.614 81.61H210.579L130.633 127.764L125.022 131.012C124.21 131.435 123.304 131.648 122.388 131.633V129.285C123.31 129.307 124.223 129.09 125.037 128.657L128.606 126.594L210.593 79.2402C210.892 79.1077 211.15 78.8962 211.339 78.6284C211.528 78.3606 211.64 78.0465 211.664 77.7198Z" fill="#191720"/>
<path opacity="0.2" d="M211.664 77.7198V80.1039C211.639 80.4256 211.528 80.7348 211.344 80.9995C211.159 81.2643 210.907 81.475 210.614 81.61H210.579L130.633 127.764L125.022 131.012C124.21 131.435 123.304 131.648 122.388 131.633V129.285C123.31 129.307 124.223 129.09 125.037 128.657L128.606 126.594L210.593 79.2402C210.892 79.1077 211.15 78.8962 211.339 78.6284C211.528 78.3606 211.64 78.0465 211.664 77.7198Z" fill="black"/>
<path d="M211.664 93.609V96.0074C211.639 96.3291 211.528 96.6383 211.344 96.903C211.159 97.1678 210.907 97.3785 210.614 97.5135H210.579L130.633 143.668L125.022 146.916C124.21 147.338 123.304 147.552 122.388 147.537V145.188C123.31 145.21 124.223 144.994 125.037 144.56L128.606 142.497L210.593 95.1508C210.895 95.016 211.155 94.801 211.343 94.5292C211.532 94.2575 211.643 93.9392 211.664 93.609Z" fill="#191720"/>
<path opacity="0.2" d="M211.664 93.609V96.0074C211.639 96.3291 211.528 96.6383 211.344 96.903C211.159 97.1678 210.907 97.3785 210.614 97.5135H210.579L130.633 143.668L125.022 146.916C124.21 147.338 123.304 147.552 122.388 147.537V145.188C123.31 145.21 124.223 144.994 125.037 144.56L128.606 142.497L210.593 95.1508C210.895 95.016 211.155 94.801 211.343 94.5292C211.532 94.2575 211.643 93.9392 211.664 93.609Z" fill="black"/>
<path d="M70.595 106.779V138.814L75.2204 133.475L79.8459 144.153V112.118L70.595 106.779Z" fill="#191720"/>
<path opacity="0.5" d="M70.595 106.779V138.814L75.2204 133.475L79.8459 144.153V112.118L70.595 106.779Z" fill="black"/>
<path d="M89.0895 173.519V182.213C89.0895 183.628 88.7167 185.019 88.0087 186.244C87.3008 187.47 86.2826 188.487 85.0565 189.194L72.9219 196.211L84.4784 194.876L82.1656 201.55L94.3003 194.533C95.5253 193.825 96.5427 192.808 97.2506 191.582C97.9584 190.357 98.3318 188.967 98.3332 187.552V178.858L89.0895 173.519Z" fill="#191720"/>
<path opacity="0.5" d="M89.0895 173.519V182.213C89.0895 183.628 88.7167 185.019 88.0087 186.244C87.3008 187.47 86.2826 188.487 85.0565 189.194L72.9219 196.211L84.4784 194.876L82.1656 201.55L94.3003 194.533C95.5253 193.825 96.5427 192.808 97.2506 191.582C97.9584 190.357 98.3318 188.967 98.3332 187.552V178.858L89.0895 173.519Z" fill="black"/>
<path d="M263.5 25.8121V18.0031L256.904 17.425C256.81 17.4176 256.716 17.4374 256.633 17.4821L250.052 21.2438C249.995 21.2813 249.947 21.3303 249.91 21.3877C249.873 21.4451 249.849 21.5095 249.839 21.5768C249.829 21.6441 249.833 21.7128 249.851 21.7784C249.87 21.844 249.901 21.9051 249.945 21.9576L256.94 29.5382L263.5 25.8121Z" fill="#9B51C9"/>
<path d="M256.94 29.5667L249.945 21.9861C249.876 21.9151 249.832 21.8248 249.817 21.7275C249.802 21.6301 249.817 21.5305 249.861 21.4422C249.905 21.354 249.975 21.2814 250.061 21.2344C250.148 21.1874 250.247 21.1682 250.344 21.1795L256.94 21.7506V29.5667Z" fill="#9B51C9"/>
<path d="M263.5 18.0031L256.94 21.772L250.344 21.1938C250.267 21.1866 250.188 21.1988 250.116 21.2295C250.644 20.9154 256.39 17.6248 256.633 17.4963C256.718 17.4508 256.815 17.4309 256.911 17.4392L263.5 18.0031Z" fill="#9B51C9"/>
<path opacity="0.5" d="M263.5 18.0031L256.94 21.772L250.344 21.1938C250.267 21.1866 250.188 21.1988 250.116 21.2295C250.644 20.9154 256.39 17.6248 256.633 17.4963C256.718 17.4508 256.815 17.4309 256.911 17.4392L263.5 18.0031Z" fill="white"/>
<path d="M256.947 12.9423C256.991 12.1172 257.23 11.3143 257.643 10.5987C258.056 9.88303 258.632 9.2749 259.324 8.82367L261.258 7.71014C261.994 7.33364 262.809 7.1373 263.635 7.1373C264.462 7.1373 265.277 7.33364 266.012 7.71014L286.613 19.6306C287.305 20.0814 287.882 20.6895 288.295 21.4052C288.708 22.1209 288.946 22.9241 288.99 23.7493V47.576C288.942 48.3983 288.702 49.198 288.289 49.9108C287.876 50.6236 287.302 51.2297 286.613 51.6803L284.678 52.7939C283.941 53.167 283.127 53.3615 282.301 53.3615C281.475 53.3615 280.661 53.167 279.924 52.7939L273.836 49.2819L265.92 44.7065L259.295 40.8876C258.603 40.4364 258.027 39.8283 257.614 39.1127C257.201 38.397 256.963 37.5941 256.919 36.769L256.947 12.9423Z" fill="#9B51C9"/>
<path d="M277.583 33.9709C277.57 32.4037 277.242 30.8551 276.619 29.4168C276.051 27.9111 275.038 26.614 273.714 25.6979C271.73 24.5273 270.067 26.9043 269.81 29.7095C269.574 26.6116 267.947 22.3002 265.955 21.1439C265.522 20.8097 264.978 20.6539 264.434 20.7083C263.89 20.7627 263.387 21.0233 263.029 21.4365C262.302 22.4145 261.946 23.6183 262.022 24.8342C262.022 29.5739 264.877 33.8781 267.24 38.3965L269.753 43.1504L272.301 41.373C274.692 39.6528 277.562 38.7177 277.583 33.9709Z" fill="#FAFAFA"/>
<path opacity="0.2" d="M289.018 47.5617C288.969 48.389 288.726 49.1932 288.308 49.9088C287.89 50.6245 287.309 51.2314 286.613 51.6803L284.678 52.7938C284.008 53.1302 283.274 53.3213 282.525 53.3545C281.776 53.3877 281.029 53.2623 280.331 52.9866C281.445 53.4077 282.301 52.7796 282.301 51.4233V27.5966C282.27 26.7676 282.024 25.9609 281.588 25.2554L288.276 21.3937C288.712 22.0993 288.958 22.906 288.99 23.735L289.018 47.5617Z" fill="black"/>
<path opacity="0.5" d="M257.026 12.2642C257.304 11.2577 258.225 10.9365 259.324 11.5504L279.953 23.4637C280.659 23.8978 281.238 24.511 281.63 25.2411L288.312 21.3794C287.904 20.6607 287.319 20.0585 286.613 19.6306L266.02 7.71014C265.283 7.33697 264.468 7.14252 263.643 7.14252C262.817 7.14252 262.002 7.33697 261.266 7.71014L259.324 8.8308C258.729 9.21804 258.218 9.72194 257.823 10.3121C257.428 10.9022 257.157 11.5663 257.026 12.2642Z" fill="white"/>
<path d="M205.553 64.1004C215.597 63.7649 220.579 68.9257 226.66 77.7055C232.742 86.4853 249.502 110.826 249.502 110.826L236.461 118.356L207.909 79.1902L205.553 64.1004Z" fill="#FFA8A7"/>
<path d="M196.481 0.0509887C174.674 1.13597 165.852 18.4599 168.878 34.3135C171.505 48.0613 181.841 55.4991 195.924 55.4991H197.687C213.013 55.4991 223.213 39.7955 225.097 31.3298C229.509 11.6717 215.811 -0.905506 196.481 0.0509887Z" fill="#3B3A42"/>
<path d="M250.259 204.841C250.794 218.025 229.194 220.609 210.222 211.558C195.91 204.734 189.521 199.808 176.495 190.086C160.355 178.016 155.516 159.736 167.029 138.022L221.928 135.167C231.486 146.245 265.912 160.963 277.333 187.146C282.879 200.986 263.828 208.274 250.209 204.841H250.259Z" fill="#565560"/>
<path d="M250.259 204.841C248.831 192.413 239.373 186.282 231.257 180.265C223.141 174.247 206.089 163.819 206.089 163.819C206.089 163.819 214.569 165.796 222.349 157.794C222.111 159.512 221.498 161.157 220.553 162.611C219.608 164.066 218.355 165.294 216.881 166.21C216.881 166.21 240.487 179.708 247.575 191.15C250.156 195.215 251.114 200.102 250.259 204.841Z" fill="#3B3A42"/>
<path d="M192.255 64.1004H185.967C179.878 64.5287 173.832 64.9998 173.832 64.9998C164.082 68.5188 164.124 76.2065 163.639 80.2395C162.925 85.9499 164.538 89.2048 166.416 94.6297L175.41 120.641C175.41 120.641 171.926 128.407 167.037 138.022C189.607 150.613 217.053 146.409 223.834 137.215C224.119 135.266 223.12 114.638 222.021 104.68C225.166 102.177 227.216 98.5487 227.737 94.5624C228.257 90.5761 227.209 86.5435 224.812 83.316C216.325 71.7167 208.601 64.7214 205.539 64.1004H192.255Z" fill="#9B51C9"/>
<path opacity="0.3" d="M192.255 64.1004H185.967C179.878 64.5287 173.832 64.9998 173.832 64.9998C164.082 68.5188 164.124 76.2065 163.639 80.2395C162.925 85.9499 164.538 89.2048 166.416 94.6297L175.41 120.641C175.41 120.641 171.926 128.407 167.037 138.022C189.607 150.613 217.053 146.409 223.834 137.215C224.119 135.266 223.12 114.638 222.021 104.68C225.166 102.177 227.216 98.5487 227.737 94.5624C228.257 90.5761 227.209 86.5435 224.812 83.316C216.325 71.7167 208.601 64.7214 205.539 64.1004H192.255Z" fill="black"/>
<path opacity="0.15" d="M173.575 124.602C172.804 126.258 171.805 128.364 170.641 130.748C170.441 131.169 170.234 131.598 170.02 132.026C169.756 132.568 169.485 133.125 169.199 133.689C168.486 135.074 167.772 136.544 167.058 138.022C167.893 138.486 168.735 138.914 169.578 139.335C184.682 146.844 201.499 147.223 212.699 143.868C205.085 144.88 197.354 144.544 189.857 142.876C188.09 142.468 186.421 141.712 184.95 140.652C183.478 139.592 182.233 138.248 181.287 136.701C180.341 135.153 179.713 133.433 179.441 131.64C179.168 129.846 179.256 128.017 179.699 126.258C179.758 126.015 179.835 125.777 179.928 125.544C181.355 122.054 184.503 122.511 184.503 122.511C183.05 121.556 181.799 120.323 180.825 118.882C179.851 117.441 179.173 115.821 178.829 114.117L177.644 110.498C174.923 102.276 174.783 93.4181 177.244 85.1147L177.308 84.8792L167.715 79.4115L166.037 80.575C165.513 82.2637 165.206 84.0123 165.124 85.7786C165.124 86.2283 165.124 86.6851 165.124 87.1419C165.124 87.3561 165.124 87.5702 165.124 87.7772C165.124 88.1627 165.166 88.541 165.202 88.9193C165.238 89.2976 165.259 89.526 165.302 89.8258C165.345 90.1256 165.388 90.4683 165.445 90.7895C165.502 91.1107 165.595 91.5675 165.68 91.953C165.738 92.1957 165.78 92.4455 165.845 92.6668C166.009 93.3021 166.194 93.9373 166.408 94.5583L175.402 120.569C175.402 120.569 174.739 122.125 173.575 124.602Z" fill="black"/>
<path d="M214.876 13.5347C216.303 14.2485 220.165 21.6363 219.794 37.7183C219.48 51.3519 215.061 54.7139 212.841 55.6847C210.621 56.6554 206.346 56.063 202.184 55.3706V63.5508C202.184 63.5508 207.937 70.232 207.573 73.9794C207.209 77.7269 199.272 78.6191 193.897 74.9573C190.409 72.4468 187.415 69.3128 185.067 65.7136V45.9413C185.067 45.9413 182.797 48.4325 178.201 45.3845C173.604 42.3366 172.897 36.0409 175.567 33.3284C178.236 30.616 183.997 31.4797 185.067 35.22C185.067 35.22 191.806 36.412 200.842 30.5946C210.6 24.3131 213.605 19.3165 214.876 13.5347Z" fill="#FFA8A7"/>
<path d="M217.103 28.7744L213.291 26.9542C213.397 26.7007 213.554 26.4715 213.752 26.2805C213.95 26.0896 214.184 25.9408 214.441 25.8433C214.698 25.7458 214.973 25.7017 215.247 25.7135C215.522 25.7253 215.791 25.7929 216.039 25.9121C216.55 26.1612 216.946 26.5974 217.144 27.1304C217.342 27.6633 217.327 28.252 217.103 28.7744Z" fill="#1E1C24"/>
<path d="M200.1 26.5973L196.531 28.8458C196.376 28.6217 196.269 28.3686 196.214 28.1018C196.16 27.8351 196.16 27.5601 196.215 27.2934C196.27 27.0267 196.378 26.7739 196.533 26.55C196.687 26.3261 196.886 26.1358 197.116 25.9906C197.596 25.6888 198.174 25.5835 198.73 25.6965C199.285 25.8095 199.776 26.1321 200.1 26.5973Z" fill="#1E1C24"/>
<path d="M184.91 31.4654L185.146 39.8026C185.694 39.8153 186.238 39.7167 186.747 39.5127C187.255 39.3087 187.717 39.0036 188.104 38.6158C188.491 38.228 188.796 37.7657 188.999 37.2568C189.202 36.748 189.299 36.2031 189.286 35.6554C189.236 34.528 188.754 33.4632 187.939 32.6827C187.123 31.9022 186.039 31.4661 184.91 31.4654Z" fill="#3B3A42"/>
<path d="M203.048 33.771C203.05 34.1067 202.954 34.4357 202.771 34.7171C202.588 34.9985 202.326 35.22 202.019 35.354C201.711 35.4879 201.37 35.5285 201.04 35.4707C200.709 35.4128 200.403 35.2591 200.159 35.0286C199.915 34.7981 199.744 34.501 199.667 34.1742C199.59 33.8474 199.611 33.5052 199.728 33.1903C199.844 32.8753 200.05 32.6015 200.32 32.4027C200.591 32.2039 200.914 32.089 201.249 32.0722C201.479 32.0646 201.708 32.1026 201.923 32.184C202.138 32.2655 202.335 32.3887 202.503 32.5467C202.67 32.7046 202.804 32.8942 202.898 33.1043C202.991 33.3144 203.042 33.5411 203.048 33.771Z" fill="#1E1C24"/>
<path d="M204.526 45.8343L209.044 47.2619C208.963 47.5648 208.821 47.8483 208.628 48.0953C208.435 48.3422 208.194 48.5475 207.919 48.6988C207.644 48.8502 207.342 48.9444 207.03 48.976C206.718 49.0075 206.402 48.9756 206.103 48.8822C205.497 48.6762 204.995 48.2439 204.701 47.6757C204.407 47.1076 204.344 46.4477 204.526 45.8343Z" fill="#F28F8F"/>
<path d="M216.303 33.0572C216.306 33.3929 216.209 33.7219 216.026 34.0033C215.843 34.2847 215.582 34.5061 215.274 34.6401C214.966 34.7741 214.626 34.8147 214.295 34.7568C213.964 34.699 213.658 34.5453 213.414 34.3148C213.17 34.0843 212.999 33.7872 212.922 33.4604C212.846 33.1335 212.867 32.7914 212.983 32.4764C213.099 32.1615 213.305 31.8876 213.576 31.6888C213.846 31.4901 214.169 31.3751 214.505 31.3583C214.734 31.3507 214.964 31.3888 215.179 31.4702C215.394 31.5516 215.591 31.6749 215.758 31.8329C215.925 31.9908 216.06 32.1803 216.153 32.3905C216.247 32.6006 216.298 32.8272 216.303 33.0572Z" fill="#1E1C24"/>
<path d="M207.93 32.0721L208.209 42.3937L213.634 40.7091L207.93 32.0721Z" fill="#F28F8F"/>
<path d="M202.184 55.3706C197.802 54.7996 188.786 52.2085 187.38 48.6395C187.38 48.6395 187.851 50.8808 190.542 53.1935C193.233 55.5062 202.184 58.1045 202.184 58.1045V55.3706Z" fill="#F28F8F"/>
<path d="M266.119 92.9737C266.119 92.9737 265.948 90.4611 269.26 88.0128C272.572 85.5644 276.898 83.6015 278.311 77.5199L282.872 80.1538L275.192 93.0736L266.119 92.9737Z" fill="#9B51C9"/>
<path opacity="0.75" d="M266.119 92.9737C266.119 92.9737 265.948 90.4611 269.26 88.0128C272.572 85.5644 276.898 83.6015 278.311 77.5199L282.872 80.1538L275.192 93.0736L266.119 92.9737Z" fill="white"/>
<path d="M266.119 92.9737C266.119 92.9737 261.123 90.4754 250.209 92.731C239.295 94.9866 230.358 97.9061 209.372 97.4421L214.819 100.59L269.303 97.435L266.119 92.9737Z" fill="#9B51C9"/>
<path opacity="0.75" d="M266.119 92.9737C266.119 92.9737 261.123 90.4754 250.209 92.731C239.295 94.9866 230.358 97.9061 209.372 97.4421L214.819 100.59L269.303 97.435L266.119 92.9737Z" fill="white"/>
<path d="M209.372 97.4421L189.893 160.135L195.339 163.283L214.819 100.59L209.372 97.4421Z" fill="#9B51C9"/>
<path opacity="0.8" d="M209.372 97.4421L189.893 160.135L195.339 163.283L214.819 100.59L209.372 97.4421Z" fill="white"/>
<path opacity="0.1" d="M209.372 97.4421L189.893 160.135L195.339 163.283L214.819 100.59L209.372 97.4421Z" fill="black"/>
<g opacity="0.1">
<path opacity="0.1" d="M278.304 80.8891C277.794 82.1993 277.032 83.3972 276.063 84.4152C275.084 85.4341 274.039 86.3879 272.936 87.2704C271.826 88.1004 270.798 89.035 269.867 90.0614C269.429 90.5654 269.06 91.1245 268.768 91.7246C268.492 92.3008 268.357 92.9346 268.375 93.5733L267.711 93.6732C267.699 92.9075 267.88 92.1512 268.239 91.4747C268.568 90.8281 268.981 90.2279 269.467 89.6902C270.457 88.6815 271.543 87.7708 272.708 86.9706C273.832 86.1452 274.905 85.2513 275.92 84.2939C276.928 83.324 277.737 82.1677 278.304 80.8891Z" fill="black"/>
<path opacity="0.1" d="M277.433 84.4224C276.968 85.2051 276.404 85.9248 275.756 86.5638C275.128 87.2276 274.485 87.8629 273.871 88.5339C273.257 89.1935 272.707 89.9106 272.23 90.6753C271.761 91.4048 271.468 92.2331 271.373 93.095L270.702 93.0094C270.87 92.0665 271.248 91.1735 271.808 90.3969C272.35 89.6502 272.962 88.957 273.636 88.3269C274.292 87.6916 274.978 87.092 275.634 86.471C276.32 85.8685 276.925 85.18 277.433 84.4224Z" fill="black"/>
<path opacity="0.1" d="M230.358 97.9061C233.34 97.6353 236.304 97.1992 239.238 96.5998C242.179 96.0074 245.084 95.2793 248.003 94.6012C250.93 93.8862 253.927 93.496 256.94 93.4377C258.453 93.3903 259.968 93.4499 261.473 93.6161C262.232 93.6995 262.984 93.8427 263.721 94.0444C264.503 94.2382 265.233 94.5985 265.862 95.1008L265.398 95.5862C264.854 95.1471 264.225 94.8262 263.55 94.644C262.848 94.4425 262.132 94.2922 261.408 94.1943C259.936 94.005 258.453 93.9191 256.969 93.9373C253.974 93.9372 250.988 94.27 248.067 94.9295C245.141 95.5505 242.214 96.2286 239.266 96.764C236.32 97.3079 233.346 97.6892 230.358 97.9061Z" fill="black"/>
<path opacity="0.1" d="M244.762 97.6348C246.454 97.4064 248.117 97.0566 249.795 96.7354C251.472 96.4142 253.15 96.1073 254.841 95.886C256.54 95.636 258.256 95.5214 259.974 95.5434C261.721 95.5407 263.453 95.8601 265.084 96.4856L264.813 97.0995C263.271 96.4524 261.624 96.0943 259.952 96.043C258.261 95.9682 256.566 96.0254 254.884 96.2144C253.192 96.3857 251.508 96.6355 249.823 96.9282C248.139 97.2208 246.461 97.435 244.762 97.6348Z" fill="black"/>
</g>
<path d="M282.887 77.0202L273.907 92.3313L253.007 159.557L255.734 161.127L264.699 142.354L285.599 78.5835L282.887 77.0202Z" fill="#9B51C9"/>
<path opacity="0.2" d="M276.627 93.9088L285.599 78.5834L264.699 142.354L255.734 161.127L276.627 93.9088Z" fill="black"/>
<path d="M264.949 97.5063L211.214 100.954L190.314 168.173L193.04 169.743L246.775 166.295L267.668 99.0767L264.949 97.5063Z" fill="#9B51C9"/>
<path opacity="0.2" d="M213.933 102.524L193.04 169.743L246.775 166.295L267.668 99.0767L213.933 102.524Z" fill="black"/>
<path d="M202.498 166.617C202.448 166.616 202.398 166.604 202.352 166.581C202.307 166.559 202.266 166.527 202.234 166.488C202.202 166.445 202.18 166.394 202.17 166.341C202.16 166.288 202.163 166.233 202.177 166.181C202.344 165.645 202.378 165.077 202.276 164.525C202.174 163.973 201.939 163.454 201.592 163.013C201.245 162.572 200.796 162.222 200.284 161.993C199.771 161.764 199.211 161.663 198.651 161.699C198.597 161.701 198.543 161.69 198.493 161.668C198.443 161.646 198.4 161.612 198.365 161.57C198.331 161.528 198.307 161.478 198.297 161.424C198.287 161.37 198.291 161.315 198.308 161.263L214.205 110.134C214.224 110.07 214.263 110.013 214.315 109.971C214.367 109.929 214.431 109.904 214.497 109.898C215.963 109.8 217.366 109.262 218.521 108.354C219.676 107.446 220.53 106.21 220.972 104.809C220.992 104.743 221.031 104.686 221.085 104.644C221.138 104.602 221.203 104.577 221.271 104.573L258.189 102.203C258.243 102.201 258.297 102.211 258.347 102.234C258.397 102.256 258.44 102.29 258.475 102.332C258.508 102.374 258.531 102.425 258.541 102.478C258.551 102.532 258.548 102.587 258.532 102.639C258.361 103.174 258.325 103.744 258.428 104.297C258.53 104.849 258.766 105.368 259.117 105.808C259.459 106.254 259.907 106.608 260.421 106.838C260.934 107.067 261.497 107.165 262.058 107.121C262.112 107.117 262.167 107.127 262.217 107.149C262.267 107.172 262.31 107.206 262.343 107.25C262.378 107.292 262.402 107.342 262.412 107.396C262.422 107.45 262.418 107.505 262.401 107.557L246.511 158.686C246.49 158.751 246.451 158.808 246.397 158.85C246.344 158.892 246.279 158.917 246.212 158.922C244.746 159.021 243.344 159.56 242.189 160.468C241.035 161.376 240.18 162.611 239.737 164.011C239.718 164.077 239.679 164.135 239.625 164.177C239.571 164.219 239.506 164.244 239.438 164.247L202.52 166.617H202.498ZM199.086 161.02C199.675 161.052 200.25 161.209 200.773 161.481C201.297 161.753 201.756 162.133 202.12 162.597C202.484 163.06 202.745 163.596 202.886 164.169C203.026 164.742 203.042 165.338 202.934 165.917L239.173 163.59C239.674 162.149 240.577 160.881 241.777 159.939C242.976 158.996 244.422 158.418 245.94 158.272L261.644 107.799C261.055 107.769 260.479 107.613 259.955 107.341C259.431 107.07 258.971 106.689 258.606 106.226C258.241 105.762 257.979 105.226 257.838 104.652C257.697 104.079 257.681 103.483 257.789 102.903L221.557 105.23C221.055 106.67 220.151 107.937 218.952 108.879C217.752 109.821 216.308 110.4 214.79 110.548L199.086 161.02Z" fill="#FAFAFA"/>
<path opacity="0.3" d="M211.214 100.954L213.933 102.524L193.04 169.743L190.314 168.173L211.214 100.954Z" fill="black"/>
<path d="M267.668 99.0767L276.619 93.9088L255.726 161.127C254.335 164.754 251.258 166.374 246.768 166.295L267.668 99.0767Z" fill="#9B51C9"/>
<path opacity="0.3" d="M267.668 99.0767L276.619 93.9088L255.726 161.127C254.163 164.961 251.001 166.424 246.768 166.295L267.668 99.0767Z" fill="black"/>
<path d="M273.6 92.16C271.937 91.1821 268.603 91.5461 266.119 92.9737C263.635 94.4013 262.993 96.3429 264.656 97.3208L267.668 99.0767L276.619 93.9088L273.9 92.3313L273.6 92.16Z" fill="#565560"/>
<path d="M262.893 114.423C266.119 114.488 269.624 114.081 271.187 111.411L273.265 104.759C271.302 107.442 268.732 108.842 264.699 108.727L262.893 114.423Z" fill="#E0E0E0"/>
<path d="M273.907 92.3313C273.379 94.9152 270.081 96.5284 264.949 97.5063L267.668 99.0767C272.08 98.5699 274.992 96.7854 276.627 93.9088L273.907 92.3313Z" fill="#9B51C9"/>
<path d="M173.832 64.9998C168.25 65.3353 162.318 67.1912 159.777 77.2915C157.236 87.3918 150.319 121.276 149.784 125.83C149.249 130.384 149.142 134.06 160.084 137.565C172.433 141.512 192.391 143.061 198.03 143.361C208.43 143.925 215.361 140.863 218.68 134.888C221.999 128.914 222.963 120.962 213.626 124.816C203.719 128.914 199.565 129.014 199.565 129.014L201.463 122.903C198.358 124.252 195.753 128.5 192.648 129.014C189.893 129.478 168.914 122.218 168.914 122.218L176.052 91.7602C176.052 91.7602 182.569 72.5661 173.832 64.9998Z" fill="#FFA8A7"/>
<path d="M174.867 53.7289C173.699 55.0176 172.46 56.2401 171.155 57.3907C168.65 59.8319 166.872 61.9662 165.709 65.2425C164.545 68.5189 164.695 72.459 166.808 75.2357C168.921 78.0124 172.519 79.3044 174.01 82.3737C174.724 83.8442 174.867 85.5288 175.103 87.1562C175.602 90.6753 176.687 94.2014 178.85 97.0281C182.355 101.625 189.85 103.945 194.639 99.7548C196.142 98.3011 197.214 96.461 197.737 94.437C199.102 90.3492 199.008 85.9151 197.473 81.8884C196.046 78.3622 193.312 75.5355 190.792 72.6732C188.543 70.1178 185.574 66.7986 185.082 63.2724C185.082 63.2724 184.989 56.7126 185.039 53.6004C185.039 52.08 185.039 50.5453 183.568 49.7459C182.437 49.0719 181.178 48.6393 179.871 48.4753C177.858 48.3754 177.515 48.6252 177.515 48.6252C176.961 50.4778 176.063 52.2093 174.867 53.7289Z" fill="#3B3A42"/>
<path d="M275.149 110.283C274.499 108.142 272.094 112.161 271.038 118.292C270.031 124.16 268.646 130.291 268.646 130.291L267.026 135.288C267.026 135.288 270.902 132.889 274.064 126.315C277.226 119.741 276.991 116.329 275.149 110.283Z" fill="#FFA8A7"/>
</svg>
